<?xml version="1.0" encoding="UTF-8"?>
<svg width="183px" height="38px" viewBox="0 0 183 38" version="1.1" xmlns="http://www.w3.org/2000/svg" xmlns:xlink="http://www.w3.org/1999/xlink">
    <title>NEXT Copy 11</title>
    <g id="Page-1" stroke="none" stroke-width="1" fill="none" fill-rule="evenodd">
        <g id="splash_4" transform="translate(-40.000000, -40.000000)" fill="#FFFEEA" fill-rule="nonzero">
            <path d="M42.6495327,55.1136364 L42.6495327,45.2578425 C42.6495327,44.4915173 42.6285047,43.8954866 42.6074766,43.2994558 L42.6705607,43.2994558 C42.8808411,43.8529129 43.2593458,44.4489437 43.6588785,45.0662612 L50.9766355,55.1136364 L54.1098131,55.1136364 L54.1098131,40 L51.4813084,40 L51.4814766,50.2135826 C51.4821495,50.7830474 51.485514,51.2734955 51.5023364,51.7503201 L51.4602804,51.7503201 C51.228972,51.1755762 50.8925234,50.6008323 50.4509346,49.9622279 L43.3014019,40 L40,40 L40,55.1136364 L42.6495327,55.1136364 Z M73.3504673,55.1136364 L73.3504673,52.8572343 L64.0014391,52.8572343 L64.0014391,48.4934379 L72.8237615,48.4934379 L72.8237615,46.3008963 L64.0014391,46.3008963 L64.0014391,42.256402 L73.1968448,42.256402 L73.1968448,40 L60.9509346,40 L60.9509346,55.1136364 L73.3504673,55.1136364 Z M81.8504024,55.1136364 L85.6170913,50.068662 C85.9309821,49.6642125 86.1611686,49.3236236 86.3076509,49.0043214 L86.349503,49.0043214 C86.4959854,49.3449104 86.6843198,49.5577785 87.0609887,50.0899488 L90.8067516,55.1136364 L94.3014019,55.1136364 L88.2328475,47.3439501 L93.8619548,40 L90.4928609,40 L86.9982106,44.7043854 C86.7052459,45.1088348 86.5587635,45.3004161 86.4332072,45.5984315 L86.3704291,45.5984315 C86.2448728,45.3004161 86.0983904,45.1088348 85.8054258,44.6830986 L82.3107755,40 L78.8579773,40 L84.5498628,47.237516 L78.4813084,55.1136364 L81.8504024,55.1136364 Z M197.542049,62.0227273 C201.748651,62.0227273 204.383088,64.1530303 205.041698,67.5189091 L205.041698,67.5189091 L202.003597,67.9662727 C201.578687,65.7294545 199.985278,64.3873636 197.457068,64.3873636 C194.249003,64.3873636 192.315666,66.5815758 192.315666,69.9900606 C192.315666,73.2920303 194.249003,75.6140606 197.520804,75.6140606 C199.921541,75.6140606 201.536196,74.3571818 202.088578,72.1842727 L202.088578,72.1842727 L205.041698,72.7594545 C204.149388,75.9549091 201.599933,78 197.435822,78 C192.188193,78 189.256319,74.6980303 189.256319,70.0113636 C189.256319,65.2607879 192.421893,62.0227273 197.542049,62.0227273 Z M65.6939944,62.4487879 L69.2419866,67.1354545 C69.5394231,67.5615152 69.6881413,67.7532424 69.8156141,68.0514848 L69.8156141,68.0514848 L69.8793505,68.0514848 C70.0068233,67.7532424 70.1555415,67.5615152 70.452978,67.1567576 L70.452978,67.1567576 L74.0009702,62.4487879 L77.4214897,62.4487879 L71.7064603,69.7983333 L77.8676444,77.5739394 L74.3196522,77.5739394 L70.5167144,72.5464242 C70.1342961,72.0138485 69.9430869,71.8008182 69.7943687,71.4599697 L69.7943687,71.4599697 L69.7518777,71.4599697 C69.6031595,71.7795152 69.3694594,72.1203636 69.0507775,72.5251212 L69.0507775,72.5251212 L65.2265942,77.5739394 L61.8060748,77.5739394 L67.9672589,69.6918182 L62.1884931,62.4487879 L65.6939944,62.4487879 Z M90.8969994,62.4487879 C94.2962734,62.4487879 96.4420651,64.2808485 96.4420651,67.1567576 C96.4420651,70.1178788 94.232537,71.9925455 90.7695267,71.9925455 L90.7695267,71.9925455 L86.2442432,71.9925455 L86.2442432,77.5739394 L83.2911239,77.5739394 L83.2911239,62.4487879 Z M113.911722,62.4487879 L113.911722,64.7069091 L105.009873,64.7069091 L105.009873,68.7544848 L113.550549,68.7544848 L113.550549,70.948697 L105.009873,70.948697 L105.009873,75.3158182 L114.06044,75.3158182 L114.06044,77.5739394 L102.056754,77.5739394 L102.056754,62.4487879 L113.911722,62.4487879 Z M128.343277,62.4487879 C132.507388,62.4487879 133.803361,64.6856061 133.803361,67.0289394 C133.803361,68.7544848 132.889806,70.6291515 130.425333,71.2682424 L130.425333,71.2682424 L134.313252,77.5739394 L130.99896,77.5739394 L127.387232,71.651697 L123.584294,71.651697 L123.584294,77.5739394 L120.631175,77.5739394 L120.631175,62.4487879 Z M143.284724,62.4487879 L143.284724,77.5739394 L140.331605,77.5739394 L140.331605,62.4487879 L143.284724,62.4487879 Z M162.369036,62.4487879 L162.369036,64.7069091 L153.467187,64.7069091 L153.467187,68.7544848 L162.007863,68.7544848 L162.007863,70.948697 L153.467187,70.948697 L153.467187,75.3158182 L162.517754,75.3158182 L162.517754,77.5739394 L150.514068,77.5739394 L150.514068,62.4487879 L162.369036,62.4487879 Z M172.424026,62.4487879 L179.647483,72.4186061 C180.093638,73.057697 180.433566,73.6328788 180.667266,74.2080606 L180.667266,74.2080606 L180.709757,74.2080606 C180.69276,73.7308727 180.689361,73.2400509 180.688681,72.6701522 L180.688681,72.6701522 L180.688511,62.4487879 L183.344194,62.4487879 L183.344194,77.5739394 L180.17862,77.5739394 L172.785199,67.5189091 C172.381535,66.9011212 171.999117,66.3046364 171.786662,65.7507576 L171.786662,65.7507576 L171.722926,65.7507576 C171.744171,66.3472424 171.765417,66.9437273 171.765417,67.7106364 L171.765417,67.7106364 L171.765417,77.5739394 L169.088489,77.5739394 L169.088489,62.4487879 L172.424026,62.4487879 Z M222.851282,62.4487879 L222.851282,64.7069091 L213.949433,64.7069091 L213.949433,68.7544848 L222.490109,68.7544848 L222.490109,70.948697 L213.949433,70.948697 L213.949433,75.3158182 L223,75.3158182 L223,77.5739394 L210.996314,77.5739394 L210.996314,62.4487879 L222.851282,62.4487879 Z M90.3021265,64.643 L86.2442432,64.643 L86.2442432,69.8196364 L90.3021265,69.8196364 C92.1929726,69.8196364 93.3614731,68.8183939 93.3614731,67.2206667 C93.3614731,65.6229394 92.2142181,64.643 90.3021265,64.643 L90.3021265,64.643 Z M127.790895,64.643 L123.584294,64.643 L123.584294,69.5213939 L127.790895,69.5213939 C129.979178,69.5213939 130.722769,68.3923333 130.722769,67.0502424 C130.722769,65.7294545 130.000423,64.643 127.790895,64.643 L127.790895,64.643 Z M111.831776,40 L111.831776,42.3628361 L106.278603,42.3628361 L106.278603,55.1136364 L103.275136,55.1136364 L103.275136,42.3628361 L97.7219626,42.3628361 L97.7219626,40 L111.831776,40 Z" id="NEXT-Copy-11"></path>
        </g>
    </g>
</svg>