<?xml version="1.0" encoding="UTF-8"?>
<svg width="111px" height="17px" viewBox="0 0 111 17" version="1.1" xmlns="http://www.w3.org/2000/svg" xmlns:xlink="http://www.w3.org/1999/xlink">
    <title>Fill 1</title>
    <g id="Page-1" stroke="none" stroke-width="1" fill="none" fill-rule="evenodd">
        <g id="splash_4" transform="translate(-867.000000, -51.000000)" fill="#FFFEEA">
            <path d="M972.386762,58.4665858 L972.386762,60.7804933 L974.013301,60.7804933 L974.013301,63.0766495 C974.018099,63.2819891 974.007063,63.5031608 973.971558,63.6801942 C973.907264,64.1081447 973.500389,64.8373878 972.345978,64.8373878 C971.198285,64.8373878 970.798607,64.1081447 970.729036,63.6801942 C970.700247,63.5031608 970.687772,63.2819891 970.687772,63.0766495 L970.687772,55.8249986 C970.687772,55.5683242 970.705045,55.2876616 970.759743,55.0751256 C970.838431,54.6884348 971.181012,53.9265677 972.336862,53.9265677 C973.550769,53.9265677 973.854005,54.7296946 973.923577,55.0751256 C973.969158,55.3034938 973.971558,55.687306 973.971558,55.687306 L973.971558,56.5676751 L977.968333,56.5676751 L977.968333,56.0471299 C977.968333,56.0471299 977.986086,55.5040357 977.937625,54.9969239 C977.637267,52.0204606 975.184984,51.0791613 972.372368,51.0791613 C969.554953,51.0791613 967.15209,52.0295761 966.802312,54.9969239 C966.770645,55.268471 966.722184,55.7568719 966.722184,56.0471299 L966.722184,62.7177852 C966.722184,63.0085229 966.731301,63.2335328 966.785519,63.7641531 C967.046532,66.6590563 969.554953,67.6847943 972.361332,67.6847943 C975.184984,67.6847943 977.676132,66.6590563 977.941464,63.7641531 C977.988485,63.2335328 977.993763,63.0085229 978,62.7177852 L978,58.4665858 L972.386762,58.4665858 Z M944.831083,51.5056725 L940.817994,51.5056725 L940.817994,63.2440876 C940.824231,63.4484676 940.817994,63.6782751 940.782488,63.8466727 C940.699482,64.2410397 940.365058,64.9990687 939.258148,64.9990687 C938.165152,64.9990687 937.822092,64.2410397 937.744843,63.8466727 C937.70454,63.6782751 937.699742,63.4484676 937.70454,63.2440876 L937.70454,51.5056725 L933.69241,51.5056725 L933.69241,62.879466 C933.687612,63.1726026 933.710643,63.7718293 933.727916,63.9287125 C934.004763,66.8922222 936.340934,67.8546311 939.258148,67.8546311 C942.18064,67.8546311 944.515371,66.8922222 944.797496,63.9287125 C944.819567,63.7718293 944.848356,63.1726026 944.831083,62.879466 L944.831083,51.5056725 Z M907.957111,51.5056725 L905.954885,63.9085624 L903.954578,51.5056725 L897.48057,51.5056725 L897.13751,67.3724671 L901.103577,67.3724671 L901.210574,52.6839758 L903.939225,67.3724671 L907.963349,67.3724671 L910.694399,52.6839758 L910.802355,67.3724671 L914.778499,67.3724671 L914.422963,51.5056725 L907.957111,51.5056725 Z M883.988454,51.5056725 L881.049169,67.3724671 L885.335747,67.3724671 L887.551006,52.6839758 L889.712528,67.3724671 L893.968878,67.3724671 L891.042067,51.5056725 L883.988454,51.5056725 Z M958.856741,64.2803804 L955.12002,51.5056725 L949.231374,51.5056725 L949.231374,67.2074279 L953.126431,67.2074279 L952.900443,54.0234803 L956.913531,67.2074279 L962.561316,67.2074279 L962.561316,51.5056725 L958.640829,51.5056725 L958.856741,64.2803804 Z M922.824828,55.6350116 C922.753817,55.3217249 922.774448,54.9887679 922.810914,54.8150928 C922.924148,54.3070215 923.265769,53.7528927 924.248889,53.7528927 C925.165796,53.7528927 925.702698,54.3242931 925.702698,55.1816335 L925.702698,56.1517187 L929.615028,56.1517187 L929.615028,55.0458599 C929.615028,51.6270531 926.549554,51.0897161 924.329976,51.0897161 C921.535112,51.0897161 919.25268,52.011345 918.835729,54.583846 C918.725374,55.2838234 918.698025,55.9051194 918.873154,56.6981712 C919.553038,59.9058814 925.137488,60.8361461 925.947878,62.8645933 C926.09134,63.2488853 926.050077,63.7392053 925.977147,64.0275442 C925.855756,64.5557656 925.5007,65.086386 924.448008,65.086386 C923.46009,65.086386 922.866091,64.5188237 922.866091,63.6634024 L922.865132,62.1406276 L918.653883,62.1406276 L918.653883,63.3510752 C918.653883,66.8586386 921.401247,67.9165209 924.360684,67.9165209 C927.194892,67.9165209 929.53538,66.9483547 929.911068,64.3235593 C930.090035,62.9667833 929.95473,62.0835356 929.883239,61.7510583 C929.226866,58.4608286 923.274885,57.4715527 922.824828,55.6350116 L922.824828,55.6350116 Z M871.217965,55.5961506 C871.140717,55.276627 871.15847,54.9383925 871.201652,54.7627984 C871.310088,54.2571259 871.653149,53.6934018 872.654022,53.6934018 C873.581965,53.6934018 874.128462,54.2700796 874.128462,55.1346165 L874.128462,56.1166958 L878.086853,56.1166958 L878.086853,55.0017215 C878.086853,51.5502907 874.974359,51 872.730791,51 C869.911936,51 867.609352,51.9355421 867.187604,54.526754 C867.072451,55.2382458 867.052779,55.8638596 867.219271,56.6655472 C867.906352,59.9092397 873.546459,60.8476604 874.366446,62.900096 C874.519983,63.2819891 874.473922,63.7718293 874.397633,64.0716826 C874.267126,64.6051815 873.909192,65.143478 872.847863,65.143478 C871.856586,65.143478 871.263547,64.5663205 871.263547,63.698905 L871.257789,62.1722921 L867,62.1722921 L867,63.3851386 C867,66.9325224 869.786227,68 872.768215,68 C875.63553,68 877.989933,67.0227183 878.374257,64.3672179 C878.564739,62.9984478 878.421757,62.1075238 878.357463,61.7702489 C877.687656,58.4397189 871.669462,57.4538014 871.217965,55.5961506 L871.217965,55.5961506 Z" id="Fill-1"></path>
        </g>
    </g>
</svg>